<svg width="14" height="9" viewBox="0 0 14 9" xmlns="http://www.w3.org/2000/svg">
<path d="M13.7099 7.79002C13.6169 7.88375 13.5063 7.95814 13.3845 8.00891C13.2626 8.05968 13.1319 8.08582 12.9999 8.08582C12.8679 8.08582 12.7372 8.05968 12.6153 8.00891C12.4934 7.95814 12.3828 7.88375 12.2899 7.79002L7.70988 3.21003C7.61691 3.1163 7.50631 3.0419 7.38445 2.99114C7.2626 2.94037 7.13189 2.91423 6.99988 2.91423C6.86787 2.91423 6.73716 2.94037 6.6153 2.99114C6.49344 3.0419 6.38284 3.1163 6.28988 3.21003L1.70988 7.79002C1.61691 7.88375 1.50631 7.95814 1.38445 8.00891C1.26259 8.05968 1.13189 8.08582 0.999877 8.08582C0.867865 8.08582 0.737159 8.05968 0.6153 8.00891C0.493441 7.95814 0.38284 7.88375 0.289877 7.79002C0.103626 7.60266 -0.000915527 7.3492 -0.000915527 7.08502C-0.000915527 6.82083 0.103626 6.56738 0.289877 6.38002L4.87988 1.79003C5.44238 1.22823 6.20487 0.912671 6.99988 0.912671C7.79488 0.912671 8.55738 1.22823 9.11988 1.79003L13.7099 6.38002C13.8961 6.56738 14.0007 6.82083 14.0007 7.08502C14.0007 7.3492 13.8961 7.60266 13.7099 7.79002Z"/>
</svg>
